<svg width="21" height="26" viewBox="0 0 21 26" fill="none" xmlns="http://www.w3.org/2000/svg">
<path fill-rule="evenodd" clip-rule="evenodd" d="M18.8355 25.3796C19.9401 25.3796 20.8355 24.4842 20.8355 23.3796V2.64282C20.8355 1.53825 19.9401 0.64282 18.8355 0.64282H2C0.895428 0.64282 0 1.53825 0 2.64282V11.0112C0 12.1158 0.895431 13.0112 2 13.0112H4.91698C6.02155 13.0112 6.91698 13.9067 6.91698 15.0112V23.3796C6.91698 24.4842 7.81241 25.3796 8.91698 25.3796H18.8355ZM16.3968 5.82927C16.3968 5.55313 16.1729 5.32927 15.8968 5.32927C15.6206 5.32927 15.3968 5.55313 15.3968 5.82927V7.9583H9.11475L10.12 6.95305C10.3153 6.75779 10.3153 6.4412 10.12 6.24594C9.92474 6.05068 9.60815 6.05068 9.41289 6.24594L7.55409 8.10474C7.35883 8.3 7.35883 8.61659 7.55409 8.81185L9.41289 10.6707C9.60815 10.8659 9.92474 10.8659 10.12 10.6707C10.3153 10.4754 10.3153 10.1588 10.12 9.96354L9.11475 8.9583H15.8968C16.1729 8.9583 16.3968 8.73444 16.3968 8.4583V5.82927Z" fill="#3AAD46"/>
</svg>
