<svg width="41" height="35" viewBox="0 0 41 35" fill="none" xmlns="http://www.w3.org/2000/svg">
<rect x="11.1626" y="2.39648" width="17.6749" height="6.46523" rx="3" stroke="white" stroke-width="3" stroke-linejoin="round"/>
<path d="M28.5107 5.62891H32.5062C35.7719 5.62891 38.4193 8.27629 38.4193 11.542V11.542C38.4193 14.8077 35.7719 17.4551 32.5062 17.4551H29.2466" stroke="white" stroke-width="3" stroke-linejoin="round"/>
<path d="M0.18103 5.62891H11.3924" stroke="white" stroke-width="3" stroke-linejoin="round"/>
<path d="M28.5107 29.2812H36.9355" stroke="white" stroke-width="3" stroke-linejoin="round"/>
<path d="M10.8384 29.2812L7.57857 29.2812C4.31286 29.2812 1.66548 26.6339 1.66548 23.3682V23.3682C1.66548 20.1025 4.31286 17.4551 7.57856 17.4551L10.8381 17.4551" stroke="white" stroke-width="3" stroke-linejoin="round"/>
<rect x="11.1626" y="14.2227" width="17.6749" height="6.46523" rx="3" stroke="white" stroke-width="3" stroke-linejoin="round"/>
<rect x="11.1626" y="26.0488" width="17.6749" height="6.46523" rx="3" stroke="white" stroke-width="3" stroke-linejoin="round"/>
<path d="M33.465 33.2502L38.4872 29.2814L33.465 25.3125" stroke="white" stroke-width="3"/>
<path d="M2.7113 9.59784L7.73353 5.62909L2.7113 1.66016" stroke="white" stroke-width="3"/>
</svg>
