<svg width="33" height="35" viewBox="0 0 33 35" fill="none" xmlns="http://www.w3.org/2000/svg">
<path d="M10.7958 14.0918C18.1918 9.82166 19.4803 4.17163 19.2 1.88038L30.5126 21.4744C28.2536 20.1109 22.0796 18.34 15.4563 22.164M10.7958 14.0918C3.39976 18.3619 3.75853 18.1547 4.86241 17.5174C4.42545 17.7697 3.7029 18.5364 4.30836 19.5851C4.91383 20.6338 6.65852 23.6557 7.45518 25.0356C7.66148 25.4991 8.36385 26.2588 9.52292 25.5896C9.87205 25.3881 10.4136 25.0754 11.0407 24.7133M10.7958 14.0918L15.4563 22.164M15.4563 22.164C14.4117 22.7671 12.4957 23.8733 11.0407 24.7133M15.4563 22.164L18.9218 28.1663C19.2759 29.0094 19.5725 30.9333 17.9256 31.8841C16.2787 32.8349 14.9598 31.5013 14.5062 30.7157L11.0407 24.7133" stroke="white" stroke-width="3" stroke-linecap="round" stroke-linejoin="round"/>
<path d="M28.0557 10.3784C28.2953 10.7933 28.3657 11.2594 28.2884 11.697L27.0302 9.51768C27.4477 9.66949 27.8162 9.96354 28.0557 10.3784Z" stroke="white" stroke-width="3"/>
</svg>
