<svg width="44" height="40" viewBox="0 0 44 40" fill="none" xmlns="http://www.w3.org/2000/svg">
<path fill-rule="evenodd" clip-rule="evenodd" d="M25.2158 3.87816C24.9487 3.79507 24.641 3.71823 24.3 3.65391C23.5711 3.52097 22.8614 3.46529 22.1975 3.4647C21.5337 3.46529 20.824 3.52097 20.0951 3.65391C19.7541 3.71823 19.4464 3.79507 19.1793 3.87816C19.0939 3.90473 19.0079 3.92329 18.9221 3.93425C17.0812 4.48328 15.2092 5.58078 13.7138 7.56582C11.4392 10.5852 11.0754 13.4297 11.4719 15.823C11.8776 18.2725 13.0985 20.3324 14.1036 21.6247C15.2989 23.1615 16.0437 24.5864 16.4754 26.0878C16.6066 26.5442 16.7067 27.0001 16.7823 27.459L27.6128 27.459C27.6884 27.0001 27.7885 26.5442 27.9197 26.0878C28.3514 24.5864 29.0962 23.1615 30.2915 21.6247C31.2966 20.3324 32.5174 18.2725 32.9232 15.823C33.3197 13.4297 32.9559 10.5852 30.6813 7.56582C29.1859 5.58078 27.3139 4.48328 25.473 3.93425C25.3872 3.92329 25.3012 3.90473 25.2158 3.87816ZM16.9992 30.6441C16.9992 30.5822 16.9991 30.5205 16.9988 30.459L27.3963 30.459C27.396 30.5205 27.3958 30.5822 27.3958 30.6441C27.3958 31.4011 27.1229 31.6936 26.9073 31.847C26.6107 32.0581 26.2073 32.1359 25.9574 32.1283L25.9348 32.1277H25.9123H25.437H18.958H18.4828H18.4602L18.4377 32.1283C18.1877 32.1359 17.7844 32.0581 17.4877 31.847C17.2722 31.6936 16.9992 31.4011 16.9992 30.6441ZM33.0774 5.76072C29.9424 1.59917 25.5964 0.47138 22.1975 0.472168C18.7987 0.47138 14.4527 1.59917 11.3177 5.76072C8.52244 9.47119 7.98895 13.1546 8.51221 16.3133C9.02619 19.416 10.5422 21.9322 11.7355 23.4665C12.7386 24.7562 13.2837 25.8439 13.5922 26.9168C13.9054 28.0059 13.9992 29.1615 13.9992 30.6441C13.9992 32.3458 14.7208 33.5601 15.7484 34.2913C16.0238 34.4872 16.3111 34.6418 16.5986 34.7619C17.1098 37.2772 19.3339 39.1703 22.0001 39.1703C24.6113 39.1703 26.7984 37.3546 27.3678 34.9168C27.7942 34.7857 28.2339 34.585 28.6467 34.2913C29.6742 33.5601 30.3958 32.3458 30.3958 30.6441C30.3958 29.1615 30.4897 28.0059 30.8029 26.9168C31.1114 25.8439 31.6565 24.7562 32.6596 23.4665C33.8529 21.9322 35.3689 19.416 35.8829 16.3133C36.4061 13.1546 35.8726 9.47119 33.0774 5.76072ZM24.0377 35.1277H19.9624C20.4187 35.7593 21.1614 36.1703 22.0001 36.1703C22.8388 36.1703 23.5815 35.7593 24.0377 35.1277ZM37.5302 7.83036C36.8127 8.24457 36.5669 9.16196 36.9811 9.87939C37.3953 10.5968 38.3127 10.8426 39.0302 10.4284L42.6539 8.33624C43.3714 7.92203 43.6172 7.00464 43.203 6.2872C42.7888 5.56976 41.8714 5.32395 41.1539 5.73816L37.5302 7.83036ZM22 5.53711C21.1716 5.53711 20.5 6.20868 20.5 7.03711C20.5 7.86554 21.1716 8.53711 22 8.53711C25.2158 8.53711 27.8228 11.144 27.8228 14.3599C27.8228 15.1883 28.4943 15.8599 29.3228 15.8599C30.1512 15.8599 30.8228 15.1883 30.8228 14.3599C30.8228 9.48719 26.8727 5.53711 22 5.53711ZM39.2762 13.2793C38.4478 13.2793 37.7762 13.9509 37.7762 14.7793C37.7762 15.6077 38.4478 16.2793 39.2762 16.2793H42.4646C43.293 16.2793 43.9646 15.6077 43.9646 14.7793C43.9646 13.9509 43.293 13.2793 42.4646 13.2793H39.2762ZM6.70264 14.7793C6.70264 13.9509 6.03106 13.2793 5.20264 13.2793H2.01428C1.18585 13.2793 0.514282 13.9509 0.514282 14.7793C0.514282 15.6077 1.18586 16.2793 2.01428 16.2793H5.20264C6.03106 16.2793 6.70264 15.6077 6.70264 14.7793ZM7.49777 9.87939C7.91198 9.16196 7.66617 8.24457 6.94873 7.83036L3.32494 5.73816C2.60751 5.32395 1.69012 5.56976 1.27591 6.2872C0.861693 7.00464 1.10751 7.92203 1.82494 8.33624L5.44873 10.4284C6.16617 10.8426 7.08356 10.5968 7.49777 9.87939ZM39.0302 19.1302C38.3127 18.7159 37.3953 18.9618 36.9811 19.6792C36.5669 20.3966 36.8127 21.314 37.5302 21.7282L41.1539 23.8204C41.8714 24.2346 42.7888 23.9888 43.203 23.2714C43.6172 22.554 43.3714 21.6366 42.6539 21.2224L39.0302 19.1302ZM7.49777 19.6792C7.08356 18.9618 6.16617 18.7159 5.44873 19.1302L1.82494 21.2224C1.10751 21.6366 0.861693 22.554 1.27591 23.2714C1.69012 23.9888 2.60751 24.2346 3.32494 23.8204L6.94873 21.7282C7.66617 21.314 7.91198 20.3966 7.49777 19.6792Z" fill="white"/>
</svg>
