<svg width="48" height="37" viewBox="0 0 48 37" fill="none" xmlns="http://www.w3.org/2000/svg">
<circle cx="15.53" cy="9.49316" r="7.62158" stroke="white" stroke-width="3"/>
<circle cx="35.8364" cy="11.626" r="5.2998" stroke="white" stroke-width="3"/>
<path d="M28.988 35.373C28.988 27.9404 22.9627 21.915 15.53 21.915C8.09738 21.915 2.07202 27.9404 2.07202 35.373" stroke="white" stroke-width="3" stroke-linecap="round"/>
<path d="M44.3689 30.9187C44.3689 31.7471 45.0404 32.4187 45.8689 32.4187C46.6973 32.4187 47.3689 31.7471 47.3689 30.9187H44.3689ZM27.9639 22.4913L26.8679 23.5154L28.9163 25.7073L30.0122 24.6832L27.9639 22.4913ZM35.8364 22.3862C40.5488 22.3862 44.3689 26.2063 44.3689 30.9187H47.3689C47.3689 24.5495 42.2056 19.3862 35.8364 19.3862V22.3862ZM30.0122 24.6832C31.5383 23.257 33.584 22.3862 35.8364 22.3862V19.3862C32.7938 19.3862 30.0236 20.5665 27.9639 22.4913L30.0122 24.6832Z" fill="white"/>
</svg>
